<svg 
	viewBox="0 0 196 240" 
	xmlns="http://www.w3.org/2000/svg"
	aria-hidden="true" 
	role="img" 
	preserveAspectRatio="xMidYMid meet"
>
	<path 
		d="M130.552 119.5C130.552 101.219 115.927 86.5938 97.6459 86.5938C79.3646 86.5938 64.7396 101.219 64.7396 119.5C64.7396 137.781 79.3646 152.406 97.6459 152.406C115.927 152.406 130.552 137.781 130.552 119.5ZM147.615 119.5C147.615 147.531 125.677 169.469 97.6459 169.469C69.6146 169.469 47.6771 147.531 47.6771 119.5C47.6771 91.4688 69.6146 69.5313 97.6459 69.5313C125.677 69.5313 147.615 91.4688 147.615 119.5ZM161.021 67.0937C161.021 74.4062 156.146 79.2812 148.833 79.2812C141.521 79.2812 136.646 74.4062 136.646 67.0937C136.646 59.7812 141.521 54.9062 148.833 54.9062C156.146 54.9062 161.021 61 161.021 67.0937ZM97.6459 39.0625C83.0209 39.0625 52.5521 37.8438 40.3646 42.7188C31.8334 46.375 24.5209 53.6875 22.0834 62.2188C17.2084 74.4063 18.4271 104.875 18.4271 119.5C18.4271 134.125 17.2084 164.594 22.0834 176.781C24.5209 185.312 31.8334 192.625 40.3646 195.063C52.5521 199.938 84.2396 198.719 97.6459 198.719C111.052 198.719 142.74 199.938 154.927 195.063C163.458 191.406 169.552 185.312 173.208 176.781C178.083 163.375 176.865 132.906 176.865 119.5C176.865 106.094 178.083 74.4063 173.208 62.2188C170.771 53.6875 163.458 46.375 154.927 43.9375C142.74 37.8437 112.271 39.0625 97.6459 39.0625ZM195.146 119.5V159.719C195.146 174.344 190.271 188.969 179.302 201.156C168.333 212.125 153.708 217 137.865 217H57.4271C42.8021 217 28.1771 212.125 15.9896 201.156C6.23962 190.188 0.145874 175.563 0.145874 159.719V79.2812C0.145874 63.4375 6.23962 48.8125 15.9896 37.8437C28.1771 28.0937 42.8021 22 57.4271 22H137.865C152.49 22 167.115 26.875 179.302 37.8437C189.052 48.8125 195.146 63.4375 195.146 79.2812V119.5Z"
		fill="currentColor"
	/>
</svg>
