<svg viewBox="0 0 241 240" fill="none" xmlns="http://www.w3.org/2000/svg">
<g>
	<path 
		d="M240.146 45.0833C233.569 54.8802 225.247 63.6036 215.582 70.5822C215.716 72.5953 215.716 74.7426 215.716 76.8899C215.716 141.979 166.186 217 75.7163 217C47.9311 217 22.025 208.813 0.145844 194.856C4.03846 195.259 7.93108 195.527 11.9579 195.527C35.0452 195.527 56.2532 187.609 73.0317 174.457C62.7679 174.245 52.8266 170.833 44.5965 164.697C36.3664 158.562 30.2584 150.009 27.1257 140.235C30.0787 140.772 33.166 141.174 36.3875 141.174C40.817 141.174 45.2465 140.503 49.2734 139.429C38.1405 137.144 28.1362 131.091 20.9474 122.29C13.7587 113.489 9.82519 102.479 9.81027 91.1156V90.5788C16.5217 94.2023 24.0385 96.4838 32.0922 96.7522C25.3512 92.2313 19.8285 86.1192 16.0124 78.9564C12.1963 71.7937 10.2044 63.8011 10.213 55.6855C10.213 46.6937 12.6291 38.2388 16.9244 30.9917C41.2197 60.7853 77.4613 80.3792 118.401 82.3923C117.595 78.7688 117.059 75.011 117.059 71.1191C117.094 58.0796 122.3 45.5862 131.534 36.3785C140.769 27.1707 153.279 22 166.32 22C180.549 22 193.3 27.905 202.294 37.5678C213.434 35.2863 224.038 31.2602 233.569 25.6235C229.81 37.031 222.025 46.6937 211.824 52.733C221.604 51.6642 231.158 49.0835 240.146 45.0833Z" 
		fill="currentColor"
	/>
</g>
</svg>
