<svg 
	viewBox="0 0 231 240" 
	fill="none" 
	xmlns="http://www.w3.org/2000/svg"
	>
<g>
	<path 
		d="M225.833 52.3515C222.958 42.2762 215.771 35.0795 205.708 32.2008C175.521 29.3222 145.333 26.4435 115.146 27.8828C84.9584 27.8828 54.7709 29.3222 24.5834 32.2008C15.9584 35.0795 7.33337 43.7155 4.45837 52.3515C1.58337 75.3808 0.145874 96.9707 0.145874 120C0.145874 143.029 1.58337 164.619 4.45837 187.649C7.33337 197.724 14.5209 204.921 24.5834 207.799C54.7709 210.678 84.9584 213.556 115.146 212.117C145.333 212.117 175.521 210.678 205.708 207.799C215.771 204.921 222.958 197.724 225.833 187.649C228.708 166.059 230.146 143.029 230.146 120C230.146 96.9707 228.708 75.3808 225.833 52.3515ZM86.3959 163.18V76.8201L161.146 120L86.3959 163.18Z"
		fill="currentColor"
	/>
</g>
</svg>
